<?xml version="1.0" encoding="UTF-8"?>
<!DOCTYPE svg PUBLIC "-//W3C//DTD SVG 1.1//EN" "http://www.w3.org/Graphics/SVG/1.1/DTD/svg11.dtd">
<svg xmlns="http://www.w3.org/2000/svg" version="1.1" width="512px" height="512px" style="shape-rendering:geometricPrecision; text-rendering:geometricPrecision; image-rendering:optimizeQuality; fill-rule:evenodd; clip-rule:evenodd" xmlns:xlink="http://www.w3.org/1999/xlink">
<g><path style="opacity:0.975" fill="#000000" d="M 511.5,127.5 C 511.5,137.833 511.5,148.167 511.5,158.5C 501.371,215.127 467.705,246.96 410.5,254C 307.167,254.333 203.833,254.667 100.5,255C 68.8238,261.463 52.4905,280.963 51.5,313.5C 52.4973,346.059 68.8306,365.559 100.5,372C 175.5,372.333 250.5,372.667 325.5,373C 334.21,381.375 342.543,390.042 350.5,399C 342.543,407.958 334.21,416.625 325.5,425C 251.167,425.667 176.833,425.667 102.5,425C 44.2234,418.887 9.8901,387.054 -0.5,329.5C -0.5,318.833 -0.5,308.167 -0.5,297.5C 10.0222,239.481 44.6889,207.648 103.5,202C 206.167,201.667 308.833,201.333 411.5,201C 435.143,197.023 450.31,183.523 457,160.5C 462.32,139.388 458.654,120.055 446,102.5C 438.72,94.562 429.886,89.062 419.5,86C 409.441,84.5221 399.441,82.8555 389.5,81C 376.821,73.6427 372.321,62.8094 376,48.5C 380.724,37.2926 389.224,31.2926 401.5,30.5C 463.892,33.9026 500.559,66.236 511.5,127.5 Z"/></g>
<g><path style="opacity:0.969" fill="#000000" d="M 342.5,317.5 C 350.319,317.095 357.319,319.262 363.5,324C 382.667,343.167 401.833,362.333 421,381.5C 429.667,393.167 429.667,404.833 421,416.5C 401.833,435.667 382.667,454.833 363.5,474C 351.262,482.702 339.262,482.368 327.5,473C 317.987,461.752 317.154,449.919 325,437.5C 337.833,424.667 350.667,411.833 363.5,399C 350.667,386.167 337.833,373.333 325,360.5C 316.354,345.74 318.521,332.906 331.5,322C 335.157,320.178 338.824,318.678 342.5,317.5 Z"/></g>
</svg>
