<?xml version="1.0" standalone="no"?>
<!DOCTYPE svg PUBLIC "-//W3C//DTD SVG 20010904//EN"
 "http://www.w3.org/TR/2001/REC-SVG-20010904/DTD/svg10.dtd">
<svg version="1.0" xmlns="http://www.w3.org/2000/svg"
 width="512.000000pt" height="512.000000pt" viewBox="0 0 512.000000 512.000000"
 preserveAspectRatio="xMidYMid meet">

<g transform="translate(0.000000,512.000000) scale(0.100000,-0.100000)"
fill="#000000" stroke="none">
<path d="M3925 4784 c-177 -63 -223 -307 -81 -432 54 -47 90 -59 218 -70 233
-22 382 -114 473 -294 51 -102 69 -197 62 -337 -5 -129 -27 -206 -88 -307 -63
-104 -180 -190 -314 -230 -56 -17 -159 -19 -1670 -24 -1470 -5 -1616 -7 -1680
-23 -439 -107 -725 -402 -821 -847 -26 -118 -26 -362 0 -480 86 -396 338 -691
691 -809 185 -62 168 -61 1410 -61 l1130 0 128 128 127 127 -127 127 -128 127
-1135 4 c-1026 3 -1140 4 -1190 20 -262 80 -410 288 -410 577 0 292 149 500
415 577 56 16 176 18 1670 23 l1610 5 96 27 c200 55 338 130 472 258 154 146
263 348 313 582 23 104 25 351 5 453 -95 482 -429 810 -896 880 -123 18 -227
18 -280 -1z"/>
<path d="M3377 1916 c-96 -36 -156 -117 -165 -221 -9 -113 3 -132 234 -365
l204 -206 -196 -194 c-215 -214 -244 -254 -244 -346 0 -183 168 -305 341 -249
50 16 79 42 362 324 341 339 357 360 357 465 -1 107 -13 122 -338 449 -163
164 -316 310 -340 324 -53 32 -157 41 -215 19z"/>
</g>
</svg>
