<?xml version="1.0" encoding="UTF-8"?>
<!DOCTYPE svg PUBLIC "-//W3C//DTD SVG 1.1//EN" "http://www.w3.org/Graphics/SVG/1.1/DTD/svg11.dtd">
<svg xmlns="http://www.w3.org/2000/svg" version="1.1" width="512px" height="512px" style="shape-rendering:geometricPrecision; text-rendering:geometricPrecision; image-rendering:optimizeQuality; fill-rule:evenodd; clip-rule:evenodd" xmlns:xlink="http://www.w3.org/1999/xlink">
<g><path style="opacity:0.952" fill="#000000" d="M 138.5,75.5 C 187.098,72.3037 226.098,89.9704 255.5,128.5C 294.144,79.6759 343.144,64.8425 402.5,84C 445.414,104.622 469.247,138.788 474,186.5C 475.793,209.87 471.793,232.203 462,253.5C 447.884,281.613 429.884,306.946 408,329.5C 368.422,369.343 324.588,403.51 276.5,432C 262.491,436.636 248.491,436.636 234.5,432C 176.543,397.902 125.376,355.402 81,304.5C 66.1466,285.95 54.1466,265.617 45,243.5C 28.712,195.489 36.3787,151.822 68,112.5C 87.4363,92.3657 110.936,80.0324 138.5,75.5 Z M 141.5,101.5 C 175.638,98.8244 204.138,110.158 227,135.5C 234.531,144.731 241.698,154.231 248.5,164C 255.843,167.089 262.01,165.589 267,159.5C 283.763,128.066 309.596,108.899 344.5,102C 389.823,98.5717 421.989,117.405 441,158.5C 451.576,186.121 450.91,213.454 439,240.5C 428.467,263.016 414.801,283.349 398,301.5C 358.457,343.074 314.29,378.574 265.5,408C 255.556,410.909 246.223,409.576 237.5,404C 186.556,371.736 141.056,332.903 101,287.5C 83.1283,266.091 70.795,241.758 64,214.5C 58.451,175.122 70.951,142.956 101.5,118C 113.765,109.641 127.098,104.141 141.5,101.5 Z"/></g>
</svg>
