<?xml version="1.0" standalone="no"?>
<!DOCTYPE svg PUBLIC "-//W3C//DTD SVG 20010904//EN"
 "http://www.w3.org/TR/2001/REC-SVG-20010904/DTD/svg10.dtd">
<svg version="1.0" xmlns="http://www.w3.org/2000/svg"
 width="512.000000pt" height="512.000000pt" viewBox="0 0 512.000000 512.000000"
 preserveAspectRatio="xMidYMid meet">

<g transform="translate(0.000000,512.000000) scale(0.100000,-0.100000)"
fill="#000000" stroke="none">
<path d="M2365 4900 c-858 -57 -1627 -468 -2040 -1090 -517 -778 -409 -1732
271 -2406 225 -224 560 -441 846 -549 l48 -18 2 -311 3 -311 245 0 245 0 92
32 c196 69 334 156 471 297 l90 94 99 6 c702 49 1307 303 1761 740 348 335
560 752 612 1201 5 50 10 111 10 138 l0 47 -213 0 -214 0 -7 -102 c-12 -186
-53 -334 -147 -523 -322 -652 -1105 -1075 -1992 -1075 -160 0 -178 -2 -184
-17 -43 -127 -135 -249 -241 -319 -50 -34 -166 -84 -192 -84 -6 0 -11 102 -12
246 l-3 247 -160 54 c-440 148 -788 387 -1027 703 -83 110 -190 311 -229 430
-64 197 -86 452 -56 645 52 326 198 605 447 856 340 342 789 552 1350 630 156
22 535 17 705 -9 77 -12 155 -26 172 -31 31 -9 33 -8 40 17 27 110 90 388 88
390 -6 7 -216 43 -327 56 -159 20 -401 26 -553 16z"/>
<path d="M3630 3950 l0 -320 -320 0 -320 0 0 -215 0 -215 320 0 320 0 0 -320
0 -320 210 0 210 0 0 320 0 320 320 0 320 0 0 215 0 215 -320 0 -320 0 0 320
0 320 -210 0 -210 0 0 -320z"/>
</g>
</svg>
