<?xml version="1.0" encoding="UTF-8"?>
<!DOCTYPE svg PUBLIC "-//W3C//DTD SVG 1.1//EN" "http://www.w3.org/Graphics/SVG/1.1/DTD/svg11.dtd">
<svg xmlns="http://www.w3.org/2000/svg" version="1.1" width="512px" height="512px" style="shape-rendering:geometricPrecision; text-rendering:geometricPrecision; image-rendering:optimizeQuality; fill-rule:evenodd; clip-rule:evenodd" xmlns:xlink="http://www.w3.org/1999/xlink">
<g><path style="opacity:0.972" fill="#000000" d="M 511.5,233.5 C 511.5,240.167 511.5,246.833 511.5,253.5C 503.955,303.755 481.288,345.921 443.5,380C 391.66,423.513 331.66,446.179 263.5,448C 233.599,484.142 195.266,498.309 148.5,490.5C 148.667,469.831 148.5,449.164 148,428.5C 97.2658,409.414 56.9325,377.414 27,332.5C 12.126,308.041 2.95938,281.707 -0.5,253.5C -0.5,240.833 -0.5,228.167 -0.5,215.5C 8.71386,155.903 37.7139,108.403 86.5,73C 143.358,33.9445 206.358,16.6112 275.5,21C 291.975,22.1871 308.309,24.3538 324.5,27.5C 321.66,41.8623 318.66,56.1957 315.5,70.5C 260.81,58.5477 207.477,63.0477 155.5,84C 116.65,100.331 85.8163,126.165 63,161.5C 31.6887,221.079 37.022,277.079 79,329.5C 109.965,363.241 147.798,385.574 192.5,396.5C 192.5,412.833 192.5,429.167 192.5,445.5C 213.864,439.805 228.197,426.472 235.5,405.5C 285.3,407.175 332.3,396.675 376.5,374C 413.354,353.814 440.521,324.648 458,286.5C 464.64,269.466 468.14,251.8 468.5,233.5C 482.833,233.5 497.167,233.5 511.5,233.5 Z"/></g>
<g><path style="opacity:0.978" fill="#000000" d="M 361.5,84.5 C 376.167,84.5 390.833,84.5 405.5,84.5C 405.5,105.833 405.5,127.167 405.5,148.5C 426.833,148.5 448.167,148.5 469.5,148.5C 469.5,162.833 469.5,177.167 469.5,191.5C 448.167,191.5 426.833,191.5 405.5,191.5C 405.5,212.833 405.5,234.167 405.5,255.5C 390.833,255.5 376.167,255.5 361.5,255.5C 361.5,234.167 361.5,212.833 361.5,191.5C 340.167,191.5 318.833,191.5 297.5,191.5C 297.5,177.167 297.5,162.833 297.5,148.5C 318.833,148.5 340.167,148.5 361.5,148.5C 361.5,127.167 361.5,105.833 361.5,84.5 Z"/></g>
</svg>
