<?xml version="1.0" encoding="UTF-8"?>
<!DOCTYPE svg PUBLIC "-//W3C//DTD SVG 1.1//EN" "http://www.w3.org/Graphics/SVG/1.1/DTD/svg11.dtd">
<svg xmlns="http://www.w3.org/2000/svg" version="1.1" width="512px" height="512px" style="shape-rendering:geometricPrecision; text-rendering:geometricPrecision; image-rendering:optimizeQuality; fill-rule:evenodd; clip-rule:evenodd" xmlns:xlink="http://www.w3.org/1999/xlink">
<g><path style="opacity:0.986" fill="#000000" d="M 313.5,-0.5 C 321.833,-0.5 330.167,-0.5 338.5,-0.5C 382.525,9.53915 406.192,37.2058 409.5,82.5C 406.149,126.348 383.149,153.514 340.5,164C 299.306,168.823 269.139,152.989 250,116.5C 235.845,78.627 243.345,45.7937 272.5,18C 284.764,8.5313 298.43,2.36463 313.5,-0.5 Z"/></g>
<g><path style="opacity:0.986" fill="#000000" d="M 173.5,122.5 C 217.152,119.696 247.319,138.363 264,178.5C 274.923,220.08 262.756,252.914 227.5,277C 194.332,294.123 162.665,291.789 132.5,270C 103.427,243.21 95.2606,211.043 108,173.5C 120.979,145.009 142.813,128.009 173.5,122.5 Z"/></g>
<g><path style="opacity:0.986" fill="#000000" d="M 289.5,169.5 C 318.188,169.119 346.855,169.619 375.5,171C 417.938,178.443 446.771,202.276 462,242.5C 464.637,251.321 466.303,260.321 467,269.5C 467.833,300.505 467.667,331.505 466.5,362.5C 439.537,375.158 411.204,382.992 381.5,386C 371.519,387.114 361.519,387.947 351.5,388.5C 341.541,338.11 312.208,304.61 263.5,288C 296.191,254.032 303.524,215.198 285.5,171.5C 286.949,170.828 288.282,170.161 289.5,169.5 Z"/></g>
<g><path style="opacity:0.992" fill="#000000" d="M 222.5,511.5 C 203.5,511.5 184.5,511.5 165.5,511.5C 124.372,507.975 84.0387,499.808 44.5,487C 43.338,455.572 43.1713,424.072 44,392.5C 48.3347,349.284 70.168,318.784 109.5,301C 115.972,298.382 122.638,296.382 129.5,295C 148.135,293.881 166.801,293.381 185.5,293.5C 201.833,293.667 218.167,293.833 234.5,294C 287.914,304.415 318.414,336.581 326,390.5C 326.833,422.172 326.667,453.839 325.5,485.5C 307.154,494.758 287.82,501.258 267.5,505C 252.414,507.591 237.414,509.758 222.5,511.5 Z"/></g>
</svg>
