<?xml version="1.0" standalone="no"?>
<!DOCTYPE svg PUBLIC "-//W3C//DTD SVG 20010904//EN"
 "http://www.w3.org/TR/2001/REC-SVG-20010904/DTD/svg10.dtd">
<svg version="1.0" xmlns="http://www.w3.org/2000/svg"
 width="512.000000pt" height="512.000000pt" viewBox="0 0 512.000000 512.000000"
 preserveAspectRatio="xMidYMid meet">

<g transform="translate(0.000000,512.000000) scale(0.100000,-0.100000)"
fill="#000000" stroke="none">
<path d="M3134 5109 c-340 -57 -611 -319 -680 -658 -21 -108 -15 -274 15 -379
80 -277 285 -484 571 -574 65 -20 95 -23 225 -23 128 0 161 4 225 24 233 72
425 238 524 453 47 101 65 176 73 293 14 239 -70 460 -241 631 -188 188 -457
276 -712 233z"/>
<path d="M1690 3871 c-303 -64 -536 -278 -626 -576 -24 -79 -28 -106 -28 -230
0 -157 13 -220 69 -342 112 -243 325 -414 583 -469 88 -18 245 -18 337 1 379
79 655 420 655 810 0 519 -483 913 -990 806z"/>
<path d="M2873 3393 c3 -10 19 -56 35 -103 43 -122 56 -218 49 -367 -10 -245
-98 -462 -258 -637 l-49 -53 63 -23 c393 -142 693 -474 796 -880 11 -46 23
-86 26 -88 10 -11 302 18 451 43 241 42 415 91 592 167 l92 40 0 485 c0 451
-1 492 -21 586 -80 395 -377 707 -774 814 l-100 27 -454 4 c-435 3 -453 3
-448 -15z"/>
<path d="M1332 2164 c-440 -75 -783 -413 -866 -853 -13 -69 -16 -169 -16 -572
l0 -488 101 -31 c493 -152 1038 -231 1494 -217 457 15 851 94 1148 229 l67 31
0 488 c0 531 -3 562 -58 724 -59 171 -185 348 -332 467 -105 85 -270 169 -405
205 l-100 27 -475 2 c-375 2 -493 0 -558 -12z"/>
</g>
</svg>
